<svg width="126" height="38" viewBox="0 0 126 38" fill="none" xmlns="http://www.w3.org/2000/svg">
<g id="jmc">
<path id="j" fill-rule="evenodd" clip-rule="evenodd" d="M36.0909 1.46827C32.7199 2.88077 30.1666 6.38727 24.8975 16.838C19.4351 27.6725 18.2965 28.8606 13.3744 28.8606C10.3885 28.8606 7.69075 26.5114 7.68473 23.9069C7.67871 20.9064 6.44183 17.5941 4.761 16.0755L3.1691 14.6366L1.58455 17.0874C0.334295 19.0213 0 20.4351 0 23.7899C0 27.5831 0.249382 28.3932 2.31398 31.3018C3.58629 33.0949 5.77658 35.1831 7.18061 35.9424C12.3762 38.7501 21.8447 37.092 24.9857 32.8236C25.6791 31.8817 28.5112 26.757 31.2791 21.4355C34.0471 16.114 36.7749 11.3899 37.3412 10.9385C37.9068 10.4865 39.0635 10.212 39.9112 10.3271C41.233 10.5078 42.1182 12.1363 46.1324 21.7743C51.6262 34.9652 53.3719 37.2186 58.0954 37.2186C63.5331 37.2186 65.6505 34.4361 71.2037 19.9947C76.1392 7.15749 77.4537 6.73123 81.9031 16.5249C87.076 27.9104 90.451 32.1961 96.7965 35.4384C100.613 37.3884 110.979 37.5395 114.825 35.7007C120.832 32.8294 125.423 26.1886 125.914 19.6604C126.259 15.077 125.644 14.3126 122.607 15.5483C119.906 16.6464 118.174 18.4106 116.319 21.9544C111.894 30.4056 101.508 31.1964 95.0776 23.572C92.4708 20.4801 91.0527 17.9219 87.9184 10.6543C86.7263 7.89042 85.0134 4.7851 84.1115 3.7545C81.8891 1.21495 78.1637 0.173423 74.9505 1.1931C70.2985 2.66925 68.9025 4.47715 64.8415 14.2843C62.7481 19.3409 60.4783 24.1827 59.7977 25.0442C58.5608 26.6098 58.5601 26.6098 57.2397 25.3246C56.5136 24.6173 54.3741 20.2776 52.486 15.6807C48.405 5.74499 46.7027 3.06014 43.5838 1.63671C40.8058 0.369511 38.8201 0.324506 36.0909 1.46827Z" fill="#4B483F"/>
<path id="ornament" d="M94.6072 7.94116C95.6194 4.99336 98.362 1.90412 100.917 0.833651C104.802 -0.793586 111.982 0.114865 111.982 2.2333C111.982 3.9544 108.548 6.95942 106.092 7.38696C100.146 8.42143 97.2842 11.2908 97.2521 16.2497C97.2327 19.2347 97.1431 19.4263 96.2787 18.3282C94.644 16.2522 93.722 10.5219 94.6072 7.94116Z" fill="#FE8000"/>
</g>
<style>
	#jmc{
	  	perspective: 10px;
	}
	#j{
		position:relative;
		z-index:2;
	}
	#ornament{
		animation:animate 2s ease-in-out infinite alternate;
		transform-origin:center;
		z-index:-1;
		position:relative;
	}
	@keyframes animate{
		0%{
			transform:scale(1) rotateX(90deg);
			opacity:0;
		}
		30%{
			transform:scale(1) rotateX(0);
			opacity:1;
		}
	}
</style>
</svg>
